<svg xmlns="http://www.w3.org/2000/svg" viewBox="0 0 1800 480" fill="none">
  <title>Horacio Ruiz logo for light backgrounds</title>
  <desc>Olive clock and HR monogram with dark Horacio Ruiz wordmark.</desc>
  <g transform="translate(16 16) scale(.875)">
    <rect x="8" y="8" width="496" height="496" rx="142" fill="#F4F1DF"/>
    <circle cx="256" cy="256" r="216" stroke="#A3A16A" stroke-width="16"/>
    <path d="M256 40v42m216 174h-42M256 472v-42M40 256h42" stroke="#A3A16A" stroke-width="18" stroke-linecap="round"/>
    <path d="M256 256v-58" stroke="#6D7040" stroke-width="16" stroke-linecap="round"/>
    <path d="M137 166v180m0-90h105m0-90v180M270 346V166h76c67 0 67 90 0 90h-76m72 0 72 90" stroke="#171910" stroke-width="28" stroke-linecap="round" stroke-linejoin="round"/>
    <circle cx="256" cy="256" r="14" fill="#6D7040"/>
    <circle cx="378" cy="107" r="12" fill="#A3A16A"/>
  </g>
  <text x="500" y="220" fill="#202218" font-family="Inter, Arial, Helvetica, sans-serif" font-size="118" font-weight="700" letter-spacing="5">HORACIO RUIZ</text>
  <text x="506" y="306" fill="#6D7040" font-family="Inter, Arial, Helvetica, sans-serif" font-size="38" font-weight="600" letter-spacing="8">APPLIED AI · GRC · SYSTEMS</text>
  <path d="M506 351h930" stroke="#A3A16A" stroke-width="3" opacity=".65"/>
  <text x="506" y="407" fill="#55584C" font-family="Inter, Arial, Helvetica, sans-serif" font-size="24" font-weight="500" letter-spacing="5">BUILD WITH PURPOSE. DESIGN FOR TRUST.</text>
</svg>
